<?xml version="1.0" encoding="utf-8"?>
<!-- Generated by IcoMoon.io -->
<!DOCTYPE svg PUBLIC "-//W3C//DTD SVG 1.1//EN" "http://www.w3.org/Graphics/SVG/1.1/DTD/svg11.dtd">
<svg version="1.1" xmlns="http://www.w3.org/2000/svg" xmlns:xlink="http://www.w3.org/1999/xlink" width="19" height="24" viewBox="0 0 19 24">
<path fill="#000000" d="M18.857 16.607q0 0.362-0.134 0.944t-0.281 0.917q-0.281 0.67-1.634 1.42-1.259 0.683-2.491 0.683-0.362 0-0.703-0.047t-0.77-0.167-0.636-0.194-0.743-0.275-0.656-0.241q-1.313-0.469-2.344-1.112-1.714-1.058-3.542-2.886t-2.886-3.542q-0.643-1.031-1.112-2.344-0.040-0.121-0.241-0.656t-0.275-0.743-0.194-0.636-0.167-0.77-0.047-0.703q0-1.232 0.683-2.491 0.75-1.353 1.42-1.634 0.335-0.147 0.917-0.281t0.944-0.134q0.188 0 0.281 0.040 0.241 0.080 0.71 1.018 0.147 0.254 0.402 0.723t0.469 0.85 0.415 0.717q0.040 0.054 0.234 0.335t0.288 0.475 0.094 0.382q0 0.268-0.382 0.67t-0.83 0.737-0.83 0.71-0.382 0.616q0 0.121 0.067 0.301t0.114 0.275 0.188 0.321 0.154 0.254q1.018 1.835 2.33 3.147t3.147 2.33q0.027 0.013 0.254 0.154t0.321 0.188 0.275 0.114 0.301 0.067q0.241 0 0.616-0.382t0.71-0.83 0.737-0.83 0.67-0.382q0.188 0 0.382 0.094t0.475 0.288 0.335 0.234q0.335 0.201 0.717 0.415t0.85 0.469 0.723 0.402q0.938 0.469 1.018 0.71 0.040 0.094 0.040 0.281z"></path>
</svg>
