<svg width="50" height="41" viewBox="0 0 50 41" fill="none" xmlns="http://www.w3.org/2000/svg"><path d="M46.296 31.482H3.704A3.705 3.705 0 0 1 0 27.777v-9.26a3.705 3.705 0 0 1 3.704-3.703h1.852S8.294 6.48 9.104 3.704C9.913.926 10.763 0 12.809 0h24.382c2.044 0 2.663.578 3.703 3.704 1.041 3.126 3.55 11.11 3.55 11.11h1.852A3.705 3.705 0 0 1 50 18.519v9.26a3.705 3.705 0 0 1-3.704 3.704zm-33.333-3.704h24.074v-1.852H12.963v1.852zm24.074-12.963c0-2.045-1.66-3.935-3.704-3.935-2.044 0-3.703 1.89-3.703 3.935 0 .048 7.407.048 7.407 0zm-24.074 9.26h24.074v-1.853H12.963v1.852zm0-3.705h24.074v-1.852H12.963v1.852zm-9.144 1.852a3.705 3.705 0 0 0 3.703 3.704 3.705 3.705 0 0 0 3.704-3.704 3.705 3.705 0 0 0-3.704-3.704 3.705 3.705 0 0 0-3.703 3.704zM39.043 3.704c-.463-1.274-.828-1.852-1.852-1.852H25.926v1.852h.926a.926.926 0 0 1 0 1.852h-3.704a.926.926 0 0 1 0-1.852h.926V1.852H12.81c-1.024 0-1.39.231-1.852 1.852-.464 1.62-3.55 11.11-3.55 11.11H28.63c.042-2.525 2.092-4.894 4.62-4.894s4.578 2.367 4.622 4.895h4.72s-3.086-9.837-3.55-11.111zm3.435 14.93a3.705 3.705 0 0 0-3.704 3.703 3.705 3.705 0 0 0 3.704 3.704 3.705 3.705 0 0 0 3.703-3.704 3.705 3.705 0 0 0-3.703-3.704zM9.259 37.962a2.779 2.779 0 0 1-5.555 0v-4.63h5.555v4.63zm37.037 0a2.779 2.779 0 0 1-5.555 0v-4.63h5.555v4.63z" fill="#fff"/></svg>