<svg xmlns="http://www.w3.org/2000/svg" width="20" height="20" viewBox="0 0 20 20"><path d="M18.571 16.786V8.215q-.357.402-.77.737-2.991 2.299-4.754 3.772-.569.48-.926.748t-.965.541-1.144.273H9.99q-.536 0-1.144-.273t-.965-.541-.926-.748q-1.763-1.473-4.754-3.772-.413-.335-.77-.737v8.571q0 .145.106.251t.251.106h16.429q.145 0 .251-.106t.106-.251zm0-11.73v-.273l-.006-.145-.033-.14-.061-.1-.1-.084-.156-.028H1.786q-.145 0-.251.106t-.106.251q0 1.875 1.641 3.17 2.154 1.696 4.475 3.538l.391.329q.324.273.513.419t.497.352.564.307.48.1h.022q.223 0 .48-.1t.564-.307.497-.352.513-.419.391-.329q2.321-1.842 4.475-3.538.603-.48 1.122-1.289t.519-1.468zM20 4.643v12.143q0 .737-.525 1.261t-1.261.525H1.785q-.737 0-1.261-.525t-.525-1.261V4.643q0-.737.525-1.261t1.261-.525h16.429q.737 0 1.261.525T20 4.643z"/></svg>