<?xml version="1.0" encoding="utf-8"?>
<!-- Generator: Adobe Illustrator 19.1.0, SVG Export Plug-In . SVG Version: 6.00 Build 0)  -->
<svg version="1.0" xmlns="http://www.w3.org/2000/svg" xmlns:xlink="http://www.w3.org/1999/xlink" x="0px" y="0px" width="180px"
	 height="90px" viewBox="0 0 180 90" style="enable-background:new 0 0 180 90;" xml:space="preserve">
<style type="text/css">
	.st0{fill:#FFFFFF;}
	.st1{fill:#192F5B;}
	.st2{fill:#47C8F5;}
</style>
<g id="driving_shcool">
	<g>
		<path class="st0" d="M12.3,73.8c1.5,1.3,2.2,3.2,2.2,5.6c0,2.4-0.7,4.3-2.1,5.7c-1.4,1.4-3.6,2.1-6.5,2.1H0.6V71.7H6
			C8.8,71.7,10.9,72.4,12.3,73.8z M9.8,82.9c0.8-0.8,1.3-1.9,1.3-3.5c0-1.5-0.4-2.7-1.3-3.5c-0.8-0.8-2.1-1.2-3.9-1.2H4v9.4h2.2
			C7.8,84.1,9,83.7,9.8,82.9z"/>
		<path class="st0" d="M28.7,76.8c0,2.5-1,4.1-2.9,4.8l3.9,5.5h-4.2L22,82.2h-2.4v4.9h-3.4V71.7H22c2.4,0,4.1,0.4,5.1,1.2
			S28.7,75.1,28.7,76.8z M24.5,78.7c0.4-0.4,0.6-1,0.6-1.8c0-0.8-0.2-1.4-0.7-1.7c-0.4-0.3-1.2-0.5-2.3-0.5h-2.6v4.6h2.5
			C23.3,79.2,24.1,79.1,24.5,78.7z"/>
		<path class="st0" d="M30.9,71.7h3.4v15.4h-3.4V71.7z"/>
		<path class="st0" d="M42.4,81.5l3.9-9.8h3.7l-6.2,15.4H41l-6.2-15.4h3.7L42.4,81.5z"/>
		<path class="st0" d="M50.6,71.7H54v15.4h-3.4V71.7z"/>
		<path class="st0" d="M67.2,71.7h3.4v15.4h-3.4l-7.3-9.6v9.6h-3.4V71.7h3.2l7.5,9.9V71.7z"/>
		<path class="st0" d="M83.1,79.3h3.5v5.5c-1.5,1.7-3.6,2.6-6.3,2.6c-2.3,0-4.2-0.7-5.7-2.2c-1.5-1.5-2.3-3.4-2.3-5.7
			c0-2.3,0.8-4.2,2.3-5.7c1.6-1.5,3.4-2.3,5.7-2.3s4.1,0.7,5.8,2.2l-1.8,2.6c-0.7-0.6-1.3-1-1.9-1.2c-0.6-0.2-1.2-0.3-1.9-0.3
			c-1.3,0-2.4,0.4-3.3,1.3c-0.9,0.9-1.3,2.1-1.3,3.5c0,1.5,0.4,2.6,1.3,3.5c0.9,0.9,1.9,1.3,3.1,1.3c1.2,0,2.2-0.2,3-0.7V79.3z"/>
		<path class="st0" d="M96.4,74.8c-0.3,0.3-0.5,0.6-0.5,1.1c0,0.4,0.2,0.8,0.6,1.1c0.4,0.3,1.3,0.6,2.8,0.9c1.5,0.4,2.6,0.9,3.4,1.6
			s1.2,1.8,1.2,3.1c0,1.4-0.5,2.5-1.6,3.4s-2.4,1.3-4.1,1.3c-2.4,0-4.6-0.9-6.6-2.7l2-2.5c1.7,1.5,3.2,2.2,4.6,2.2
			c0.6,0,1.1-0.1,1.5-0.4c0.4-0.3,0.5-0.6,0.5-1.1s-0.2-0.8-0.6-1.1c-0.4-0.3-1.1-0.5-2.3-0.8c-1.8-0.4-3.1-1-3.9-1.7
			c-0.8-0.7-1.2-1.8-1.2-3.2s0.5-2.6,1.6-3.4c1-0.8,2.4-1.2,3.9-1.2c1,0,2.1,0.2,3.1,0.5c1,0.4,1.9,0.9,2.7,1.5l-1.7,2.5
			c-1.3-1-2.7-1.5-4.1-1.5C97.2,74.4,96.7,74.5,96.4,74.8z"/>
		<path class="st0" d="M112.6,84.1c1.7,0,3.1-0.7,4.1-2l2.2,2.3c-1.7,2-3.8,2.9-6.2,2.9c-2.4,0-4.3-0.7-5.9-2.2
			c-1.5-1.5-2.3-3.4-2.3-5.7c0-2.3,0.8-4.2,2.3-5.7c1.6-1.5,3.5-2.3,5.7-2.3c2.5,0,4.6,1,6.3,2.9l-2.1,2.4c-1.1-1.3-2.4-2-4-2
			c-1.3,0-2.4,0.4-3.3,1.3c-0.9,0.8-1.4,2-1.4,3.4s0.4,2.6,1.3,3.4S111.3,84.1,112.6,84.1z"/>
		<path class="st0" d="M129.8,71.7h3.4v15.4h-3.4v-6h-6.1v6h-3.4V71.7h3.4v6.4h6.1V71.7z"/>
		<path class="st0" d="M148.7,85c-1.6,1.5-3.5,2.3-5.7,2.3s-4.2-0.8-5.7-2.3c-1.6-1.5-2.3-3.4-2.3-5.7s0.8-4.1,2.3-5.7
			c1.6-1.5,3.5-2.3,5.7-2.3s4.2,0.8,5.7,2.3c1.6,1.5,2.3,3.4,2.3,5.7S150.2,83.5,148.7,85z M147.5,79.3c0-1.4-0.4-2.5-1.3-3.5
			s-2-1.5-3.2-1.5s-2.4,0.5-3.2,1.5c-0.9,1-1.3,2.1-1.3,3.5c0,1.4,0.4,2.5,1.3,3.5c0.9,1,2,1.4,3.2,1.4s2.4-0.5,3.2-1.4
			C147.1,81.9,147.5,80.7,147.5,79.3z"/>
		<path class="st0" d="M165.5,85c-1.6,1.5-3.5,2.3-5.7,2.3s-4.2-0.8-5.7-2.3c-1.6-1.5-2.3-3.4-2.3-5.7s0.8-4.1,2.3-5.7
			c1.6-1.5,3.5-2.3,5.7-2.3s4.2,0.8,5.7,2.3c1.6,1.5,2.3,3.4,2.3,5.7S167.1,83.5,165.5,85z M164.3,79.3c0-1.4-0.4-2.5-1.3-3.5
			s-2-1.5-3.2-1.5s-2.4,0.5-3.2,1.5c-0.9,1-1.3,2.1-1.3,3.5c0,1.4,0.4,2.5,1.3,3.5c0.9,1,2,1.4,3.2,1.4s2.4-0.5,3.2-1.4
			C163.9,81.9,164.3,80.7,164.3,79.3z"/>
		<path class="st0" d="M169.4,87.1V71.7h3.4v12.3h6.6v3.1H169.4z"/>
	</g>
</g>
<g id="to">
	<rect x="82.8" y="16.1" class="st0" width="27" height="16"/>
	<g>
		<path class="st1" d="M92.8,22.4v6.8h-1.9v-6.8h-2.4v-1.6h6.6v1.6H92.8z"/>
		<path class="st1" d="M103.4,28c-0.8,0.8-1.9,1.2-3.1,1.2s-2.3-0.4-3.1-1.2c-0.8-0.8-1.3-1.9-1.3-3.1c0-1.2,0.4-2.3,1.3-3.1
			c0.8-0.8,1.9-1.2,3.1-1.2s2.3,0.4,3.1,1.2s1.3,1.9,1.3,3.1C104.6,26.1,104.2,27.1,103.4,28z M102.7,24.9c0-0.7-0.2-1.4-0.7-1.9
			c-0.5-0.5-1.1-0.8-1.8-0.8c-0.7,0-1.3,0.3-1.8,0.8s-0.7,1.2-0.7,1.9s0.2,1.4,0.7,1.9c0.5,0.5,1.1,0.8,1.8,0.8
			c0.7,0,1.3-0.3,1.8-0.8C102.5,26.3,102.7,25.6,102.7,24.9z"/>
	</g>
</g>
<g id="az">
	<g>
		<path class="st2" d="M47.1,48.6l-6,13.5H30.5L56.6,2.7h10.7l26.2,59.4H82.8l-5.9-13.5H47.1z M72.8,39.3L62,14.9L51.2,39.3H72.8z"
			/>
		<path class="st2" d="M132.1,11.9H98.6V2.7h47.4v7.8l-34.5,42.1v0.3h35v9.3h-49v-7.7l34.6-42.2V11.9z"/>
	</g>
</g>
</svg>
