<svg version="1" xmlns="http://www.w3.org/2000/svg" width="180" height="90" viewBox="0 0 180 90"><style>.st0{fill:#fff}.st1{fill:#192f5b}.st2{fill:#47c8f5}</style><g id="driving_shcool"><path class="st0" d="M12.3 73.8c1.5 1.3 2.2 3.2 2.2 5.6 0 2.4-.7 4.3-2.1 5.7-1.4 1.4-3.6 2.1-6.5 2.1H.6V71.7H6c2.8 0 4.9.7 6.3 2.1zm-2.5 9.1c.8-.8 1.3-1.9 1.3-3.5 0-1.5-.4-2.7-1.3-3.5-.8-.8-2.1-1.2-3.9-1.2H4v9.4h2.2c1.6 0 2.8-.4 3.6-1.2zM28.7 76.8c0 2.5-1 4.1-2.9 4.8l3.9 5.5h-4.2L22 82.2h-2.4v4.9h-3.4V71.7H22c2.4 0 4.1.4 5.1 1.2s1.6 2.2 1.6 3.9zm-4.2 1.9c.4-.4.6-1 .6-1.8s-.2-1.4-.7-1.7c-.4-.3-1.2-.5-2.3-.5h-2.6v4.6H22c1.3-.1 2.1-.2 2.5-.6zM30.9 71.7h3.4v15.4h-3.4V71.7zM42.4 81.5l3.9-9.8H50l-6.2 15.4H41l-6.2-15.4h3.7l3.9 9.8zM50.6 71.7H54v15.4h-3.4V71.7zM67.2 71.7h3.4v15.4h-3.4l-7.3-9.6v9.6h-3.4V71.7h3.2l7.5 9.9v-9.9zM83.1 79.3h3.5v5.5c-1.5 1.7-3.6 2.6-6.3 2.6-2.3 0-4.2-.7-5.7-2.2-1.5-1.5-2.3-3.4-2.3-5.7 0-2.3.8-4.2 2.3-5.7 1.6-1.5 3.4-2.3 5.7-2.3s4.1.7 5.8 2.2l-1.8 2.6c-.7-.6-1.3-1-1.9-1.2-.6-.2-1.2-.3-1.9-.3-1.3 0-2.4.4-3.3 1.3-.9.9-1.3 2.1-1.3 3.5 0 1.5.4 2.6 1.3 3.5.9.9 1.9 1.3 3.1 1.3 1.2 0 2.2-.2 3-.7v-4.4zM96.4 74.8c-.3.3-.5.6-.5 1.1 0 .4.2.8.6 1.1.4.3 1.3.6 2.8.9 1.5.4 2.6.9 3.4 1.6s1.2 1.8 1.2 3.1c0 1.4-.5 2.5-1.6 3.4s-2.4 1.3-4.1 1.3c-2.4 0-4.6-.9-6.6-2.7l2-2.5c1.7 1.5 3.2 2.2 4.6 2.2.6 0 1.1-.1 1.5-.4.4-.3.5-.6.5-1.1s-.2-.8-.6-1.1c-.4-.3-1.1-.5-2.3-.8-1.8-.4-3.1-1-3.9-1.7-.8-.7-1.2-1.8-1.2-3.2s.5-2.6 1.6-3.4c1-.8 2.4-1.2 3.9-1.2 1 0 2.1.2 3.1.5 1 .4 1.9.9 2.7 1.5l-1.7 2.5c-1.3-1-2.7-1.5-4.1-1.5-.5 0-1 .1-1.3.4zM112.6 84.1c1.7 0 3.1-.7 4.1-2l2.2 2.3c-1.7 2-3.8 2.9-6.2 2.9-2.4 0-4.3-.7-5.9-2.2-1.5-1.5-2.3-3.4-2.3-5.7 0-2.3.8-4.2 2.3-5.7 1.6-1.5 3.5-2.3 5.7-2.3 2.5 0 4.6 1 6.3 2.9l-2.1 2.4c-1.1-1.3-2.4-2-4-2-1.3 0-2.4.4-3.3 1.3-.9.8-1.4 2-1.4 3.4s.4 2.6 1.3 3.4 2 1.3 3.3 1.3zM129.8 71.7h3.4v15.4h-3.4v-6h-6.1v6h-3.4V71.7h3.4v6.4h6.1v-6.4zM148.7 85c-1.6 1.5-3.5 2.3-5.7 2.3s-4.2-.8-5.7-2.3c-1.6-1.5-2.3-3.4-2.3-5.7s.8-4.1 2.3-5.7c1.6-1.5 3.5-2.3 5.7-2.3s4.2.8 5.7 2.3c1.6 1.5 2.3 3.4 2.3 5.7s-.8 4.2-2.3 5.7zm-1.2-5.7c0-1.4-.4-2.5-1.3-3.5s-2-1.5-3.2-1.5-2.4.5-3.2 1.5c-.9 1-1.3 2.1-1.3 3.5s.4 2.5 1.3 3.5 2 1.4 3.2 1.4 2.4-.5 3.2-1.4c.9-.9 1.3-2.1 1.3-3.5zM165.5 85c-1.6 1.5-3.5 2.3-5.7 2.3s-4.2-.8-5.7-2.3c-1.6-1.5-2.3-3.4-2.3-5.7s.8-4.1 2.3-5.7c1.6-1.5 3.5-2.3 5.7-2.3s4.2.8 5.7 2.3c1.6 1.5 2.3 3.4 2.3 5.7s-.7 4.2-2.3 5.7zm-1.2-5.7c0-1.4-.4-2.5-1.3-3.5s-2-1.5-3.2-1.5-2.4.5-3.2 1.5c-.9 1-1.3 2.1-1.3 3.5s.4 2.5 1.3 3.5 2 1.4 3.2 1.4 2.4-.5 3.2-1.4c.9-.9 1.3-2.1 1.3-3.5zM169.4 87.1V71.7h3.4V84h6.6v3.1h-10z"/></g><g id="to"><path class="st0" d="M82.8 16.1h27v16h-27z"/><path class="st1" d="M92.8 22.4v6.8h-1.9v-6.8h-2.4v-1.6h6.6v1.6h-2.3zM103.4 28c-.8.8-1.9 1.2-3.1 1.2s-2.3-.4-3.1-1.2c-.8-.8-1.3-1.9-1.3-3.1 0-1.2.4-2.3 1.3-3.1.8-.8 1.9-1.2 3.1-1.2s2.3.4 3.1 1.2 1.3 1.9 1.3 3.1c-.1 1.2-.5 2.2-1.3 3.1zm-.7-3.1c0-.7-.2-1.4-.7-1.9-.5-.5-1.1-.8-1.8-.8s-1.3.3-1.8.8-.7 1.2-.7 1.9.2 1.4.7 1.9c.5.5 1.1.8 1.8.8s1.3-.3 1.8-.8.7-1.2.7-1.9z"/></g><g id="az"><path class="st2" d="M47.1 48.6l-6 13.5H30.5L56.6 2.7h10.7l26.2 59.4H82.8l-5.9-13.5H47.1zm25.7-9.3L62 14.9 51.2 39.3h21.6zM132.1 11.9H98.6V2.7H146v7.8l-34.5 42.1v.3h35v9.3h-49v-7.7l34.6-42.2v-.4z"/></g></svg>