<svg xmlns="http://www.w3.org/2000/svg" width="19" height="24" viewBox="0 0 19 24"><path d="M18.857 16.607q0 .362-.134.944t-.281.917q-.281.67-1.634 1.42-1.259.683-2.491.683-.362 0-.703-.047t-.77-.167-.636-.194-.743-.275-.656-.241q-1.313-.469-2.344-1.112-1.714-1.058-3.542-2.886t-2.886-3.542Q1.394 11.076.925 9.763q-.04-.121-.241-.656t-.275-.743-.194-.636-.167-.77-.047-.703q0-1.232.683-2.491.75-1.353 1.42-1.634.335-.147.917-.281t.944-.134q.188 0 .281.04.241.08.71 1.018.147.254.402.723t.469.85.415.717q.04.054.234.335t.288.475.094.382q0 .268-.382.67t-.83.737-.83.71-.382.616q0 .121.067.301t.114.275.188.321.154.254q1.018 1.835 2.33 3.147t3.147 2.33q.027.013.254.154t.321.188.275.114.301.067q.241 0 .616-.382t.71-.83.737-.83.67-.382q.188 0 .382.094t.475.288.335.234q.335.201.717.415t.85.469.723.402q.938.469 1.018.71.04.094.04.281z"/></svg>