<svg xmlns="http://www.w3.org/2000/svg" xmlns:xlink="http://www.w3.org/1999/xlink" width="262" height="24" viewBox="0 0 262 24"><svg width="24" height="24" viewBox="0 0 24 24"><path d="M23.25 3.137h-2.72c-.412 0-.75.33-.75.736v.942L4.258 10.504v-.381c0-.607-.505-1.103-1.125-1.103H1.125C.505 9.02 0 9.516 0 10.123v6.618c0 .606.505 1.103 1.125 1.103h2.008c.618 0 1.125-.497 1.125-1.103v-.467l1.46.267c-.032.23-.054.46-.054.693 0 2.678 2.204 4.858 4.912 4.858 2.339 0 4.278-1.592 4.772-3.786l4.433.813v.93c0 .405.337.736.75.736h2.72c.412 0 .75-.33.75-.736V3.873a.745.745 0 0 0-.75-.736zM10.576 20.68c-1.93 0-3.5-1.546-3.5-3.446 0-.147.038-.289.056-.435l6.833 1.254c-.373 1.528-1.744 2.627-3.39 2.627zm12.012-1.308h-1.396v-1.43L2.846 14.578v1.852H1.412v-6h1.434v2.095l18.346-6.724V4.549h1.396v14.824z"/></svg><svg width="24" height="24" viewBox="0 0 24 24" x="34"><path d="M12.706 2.859V1.412h2.118V0H9.177v1.412h2.118v1.447c-5.509.367-9.882 4.952-9.882 10.553C1.413 19.251 6.162 24 12.001 24s10.588-4.749 10.588-10.588c0-5.6-4.374-10.186-9.882-10.553zM12 22.588c-5.06 0-9.176-4.117-9.176-9.176S6.941 4.236 12 4.236s9.176 4.117 9.176 9.176-4.117 9.176-9.176 9.176zm.706-9.882h5.647v1.412h-7.059V8.471h1.412v4.235z"/></svg><svg width="24" height="24" viewBox="0 0 24 24" x="68"><path d="M0 0v24h24V0H0zm22.588 22.588H1.412V1.412h21.176v21.176zM5.647 14.445v3.908h1.412v-3.908c1.042-.308 1.808-1.262 1.808-2.401S8.1 9.95 7.059 9.643V5.648H5.647v3.995c-1.042.308-1.808 1.262-1.808 2.401s.767 2.095 1.808 2.401zm.706-3.504c.608 0 1.103.496 1.103 1.103s-.494 1.103-1.103 1.103a1.103 1.103 0 0 1 0-2.206zm4.941.504v6.908h1.412v-6.908c1.042-.308 1.808-1.262 1.808-2.401s-.767-2.094-1.808-2.401v-.995h-1.412v.995c-1.042.308-1.808 1.262-1.808 2.401s.767 2.095 1.808 2.401zM12 7.941c.608 0 1.103.496 1.103 1.103s-.494 1.104-1.103 1.104a1.105 1.105 0 0 1 0-2.207zm5.647 11.001a2.517 2.517 0 0 0 2.514-2.514 2.508 2.508 0 0 0-1.808-2.401V5.648h-1.412v8.379a2.51 2.51 0 0 0-1.808 2.401 2.517 2.517 0 0 0 2.514 2.514zm0-3.619c.608 0 1.103.496 1.103 1.103s-.496 1.103-1.103 1.103-1.103-.496-1.103-1.103.494-1.103 1.103-1.103z"/></svg><svg width="24" height="24" viewBox="0 0 24 24" x="102"><path d="M0 4.235v16.941h24V4.235H0zm22.588 15.53H1.412V5.647h21.176v14.118zm-18.971-.691l-1.412-.031c.047-2.019 1.974-3.744 4.672-4.259v-.46c-.35-.366-.6-.861-.769-1.303a1.749 1.749 0 0 1-.563-.728c-.261-.579-.216-1.159.089-1.508a5.347 5.347 0 0 1-.008-.306l-.003-.26c-.008-.758-.023-2.005 1.312-2.236.274-.479.682-.885 1.664-.919 1.585-.049 2.705.534 3.085 1.625.128.374.008.685-.079.911-.083.215-.162.416-.116.796.018.151.016.299.004.44.247.335.298.843.116 1.376-.134.385-.352.683-.613.858-.157.405-.381.853-.688 1.193v.532c2.695.529 4.557 2.218 4.604 4.247l-1.412.032c-.032-1.441-1.708-2.694-3.985-2.977l-.618-.078v-2.413l.282-.212c.15-.113.383-.453.586-1.074l.191-.486.104-.891c.02-.15.038-.292.027-.378-.088-.734.093-1.2.2-1.477l.017-.044c-.296-.559-1.241-.583-1.653-.573-.391.016-.419.071-.496.216-.096.186-.323.624-.899.675-.13.011-.171.038-.171.038-.058.09-.054.518-.051.802l.001.275c0 .199.014.412.041.63l.099.809.169.03.004.35c.217.658.479 1.018.637 1.127l.304.21v2.382l-.624.073c-2.276.267-4.015 1.55-4.048 2.986zm17.559-7.78h-7.059V9.882h7.059v1.412zm-1.411 2.824h-5.647v-1.412h5.647v1.412z"/></svg><svg width="24" height="24" viewBox="0 0 24 24" x="136"><path d="M24 16.235v.706h-8.708v-1.412h7.273a10.55 10.55 0 0 0-2.6-6.26l-1.138 1.138-.998-.998 1.132-1.132a10.531 10.531 0 0 0-6.256-2.596v4.201h-1.412V5.681a10.535 10.535 0 0 0-6.254 2.596l1.124 1.124-.998.998L4.036 9.27a10.528 10.528 0 0 0-2.6 6.26h7.3v1.412H0v-.706c0-6.617 5.383-12 12-12s12 5.383 12 12zm-9.176 0c0 1.557-1.266 2.824-2.824 2.824s-2.824-1.266-2.824-2.824c0-.909.439-1.708 1.107-2.226L7.344 8.884l1.224-.702 3.023 5.27c.134-.02.268-.041.409-.041a2.827 2.827 0 0 1 2.824 2.824zm-1.412 0c0-.778-.634-1.412-1.412-1.412s-1.412.634-1.412 1.412.634 1.412 1.412 1.412 1.412-.634 1.412-1.412z"/></svg><svg width="24" height="24" viewBox="0 0 24 24" x="170"><path d="M24 14.095l-2.764.003-2.896-5.627H7.118l-4.19 5.646L0 14.118v7.026h2.826c0 .011-.003.021-.003.032C2.823 22.733 4.089 24 5.647 24s2.824-1.266 2.824-2.824c0-.011-.003-.021-.003-.032h7.066c-.001.011-.004.021-.004.032 0 1.557 1.266 2.824 2.824 2.824s2.824-1.266 2.824-2.824c0-.011-.003-.021-.003-.032h2.826v-7.049zm-4.351.004l-5.502.006V9.882h3.332l2.17 4.217zM7.827 9.882h4.909v4.224l-8.048.007 3.14-4.231zm-2.18 12.706c-.778 0-1.412-.634-1.412-1.412s.634-1.412 1.412-1.412 1.412.634 1.412 1.412-.634 1.412-1.412 1.412zm12.706 0c-.778 0-1.412-.634-1.412-1.412s.634-1.412 1.412-1.412 1.412.634 1.412 1.412-.634 1.412-1.412 1.412zm4.235-2.856h-1.823c-.494-.822-1.385-1.379-2.413-1.379s-1.919.558-2.413 1.379h-7.88c-.494-.822-1.385-1.379-2.413-1.379s-1.919.558-2.413 1.379H1.41v-4.203l21.176-.021v4.224z"/></svg><svg width="24" height="24" viewBox="0 0 24 24" x="204"><path d="M12 0C5.383 0 0 5.383 0 12s5.383 12 12 12 12-5.383 12-12S18.617 0 12 0zm0 22.588C6.161 22.588 1.412 17.839 1.412 12S6.161 1.412 12 1.412 22.588 6.161 22.588 12 17.839 22.588 12 22.588zm6.353-9.882c0 3.503-2.85 6.353-6.353 6.353s-6.353-2.85-6.353-6.353a.706.706 0 1 1 1.412 0c0 2.725 2.216 4.941 4.941 4.941s4.941-2.216 4.941-4.941a.706.706 0 1 1 1.412 0zm-12-4.941a1.412 1.412 0 1 1 2.825 0 1.412 1.412 0 0 1-2.825 0zm8.471 0a1.412 1.412 0 1 1 2.825 0 1.412 1.412 0 0 1-2.825 0z"/></svg></svg>