<?xml version="1.0" encoding="utf-8"?>
<!-- Generated by IcoMoon.io -->
<!DOCTYPE svg PUBLIC "-//W3C//DTD SVG 1.1//EN" "http://www.w3.org/Graphics/SVG/1.1/DTD/svg11.dtd">
<svg version="1.1" xmlns="http://www.w3.org/2000/svg" xmlns:xlink="http://www.w3.org/1999/xlink" width="262" height="24" viewBox="0 0 262 24">
<svg id="icon-untitled" width="24" height="24" viewBox="0 0 24 24" x="0" y="0">
<path fill="rgb(0, 0, 0)" d="M23.25 3.137h-2.72c-0.412 0-0.75 0.33-0.75 0.736v0.942l-15.522 5.689v-0.381c0-0.607-0.505-1.103-1.125-1.103h-2.008c-0.62 0-1.125 0.496-1.125 1.103v6.618c0 0.606 0.505 1.103 1.125 1.103h2.008c0.618 0 1.125-0.497 1.125-1.103v-0.467l1.46 0.267c-0.032 0.23-0.054 0.46-0.054 0.693 0 2.678 2.204 4.858 4.912 4.858 2.339 0 4.278-1.592 4.772-3.786l4.433 0.813v0.93c0 0.405 0.337 0.736 0.75 0.736h2.72c0.412 0 0.75-0.33 0.75-0.736v-16.176c0-0.405-0.337-0.736-0.75-0.736zM10.576 20.68c-1.93 0-3.5-1.546-3.5-3.446 0-0.147 0.038-0.289 0.056-0.435l6.833 1.254c-0.373 1.528-1.744 2.627-3.39 2.627zM22.588 19.372h-1.396v-1.43l-18.346-3.364v1.852h-1.434v-6h1.434v2.095l18.346-6.724v-1.252h1.396v14.824z"></path>
</svg>
<svg id="icon-untitled2" width="24" height="24" viewBox="0 0 24 24" x="34" y="0">
<path fill="rgb(0, 0, 0)" d="M12.706 2.859v-1.447h2.118v-1.412h-5.647v1.412h2.118v1.447c-5.509 0.367-9.882 4.952-9.882 10.553 0 5.839 4.749 10.588 10.588 10.588s10.588-4.749 10.588-10.588c0-5.6-4.374-10.186-9.882-10.553zM12 22.588c-5.060 0-9.176-4.117-9.176-9.176s4.117-9.176 9.176-9.176 9.176 4.117 9.176 9.176-4.117 9.176-9.176 9.176zM12.706 12.706h5.647v1.412h-7.059v-5.647h1.412v4.235z"></path>
</svg>
<svg id="icon-untitled3" width="24" height="24" viewBox="0 0 24 24" x="68" y="0">
<path fill="rgb(0, 0, 0)" d="M0 0v24h24v-24h-24zM22.588 22.588h-21.176v-21.176h21.176v21.176zM5.647 14.445v3.908h1.412v-3.908c1.042-0.308 1.808-1.262 1.808-2.401s-0.767-2.094-1.808-2.401v-3.995h-1.412v3.995c-1.042 0.308-1.808 1.262-1.808 2.401s0.767 2.095 1.808 2.401zM6.353 10.941c0.608 0 1.103 0.496 1.103 1.103s-0.494 1.103-1.103 1.103-1.103-0.494-1.103-1.103 0.494-1.103 1.103-1.103zM11.294 11.445v6.908h1.412v-6.908c1.042-0.308 1.808-1.262 1.808-2.401s-0.767-2.094-1.808-2.401v-0.995h-1.412v0.995c-1.042 0.308-1.808 1.262-1.808 2.401s0.767 2.095 1.808 2.401zM12 7.941c0.608 0 1.103 0.496 1.103 1.103s-0.494 1.104-1.103 1.104-1.103-0.496-1.103-1.104 0.494-1.103 1.103-1.103zM17.647 18.942c1.386 0 2.514-1.128 2.514-2.514 0-1.141-0.767-2.094-1.808-2.401v-8.379h-1.412v8.379c-1.042 0.308-1.808 1.262-1.808 2.401 0 1.386 1.128 2.514 2.514 2.514zM17.647 15.323c0.608 0 1.103 0.496 1.103 1.103s-0.496 1.103-1.103 1.103-1.103-0.496-1.103-1.103 0.494-1.103 1.103-1.103z"></path>
</svg>
<svg id="icon-untitled4" width="24" height="24" viewBox="0 0 24 24" x="102" y="0">
<path fill="rgb(0, 0, 0)" d="M0 4.235v16.941h24v-16.941h-24zM22.588 19.765h-21.176v-14.118h21.176v14.118zM3.617 19.074l-1.412-0.031c0.047-2.019 1.974-3.744 4.672-4.259v-0.46c-0.35-0.366-0.6-0.861-0.769-1.303-0.229-0.164-0.426-0.415-0.563-0.728-0.261-0.579-0.216-1.159 0.089-1.508-0.006-0.104-0.008-0.208-0.008-0.306l-0.003-0.26c-0.008-0.758-0.023-2.005 1.312-2.236 0.274-0.479 0.682-0.885 1.664-0.919 1.585-0.049 2.705 0.534 3.085 1.625 0.128 0.374 0.008 0.685-0.079 0.911-0.083 0.215-0.162 0.416-0.116 0.796 0.018 0.151 0.016 0.299 0.004 0.44 0.247 0.335 0.298 0.843 0.116 1.376-0.134 0.385-0.352 0.683-0.613 0.858-0.157 0.405-0.381 0.853-0.688 1.193v0.532c2.695 0.529 4.557 2.218 4.604 4.247l-1.412 0.032c-0.032-1.441-1.708-2.694-3.985-2.977l-0.618-0.078v-2.413l0.282-0.212c0.15-0.113 0.383-0.453 0.586-1.074l0.191-0.486 0.104-0.891c0.020-0.15 0.038-0.292 0.027-0.378-0.088-0.734 0.093-1.2 0.2-1.477 0.007-0.020 0.013-0.032 0.017-0.044-0.296-0.559-1.241-0.583-1.653-0.573-0.391 0.016-0.419 0.071-0.496 0.216-0.096 0.186-0.323 0.624-0.899 0.675-0.13 0.011-0.171 0.038-0.171 0.038-0.058 0.090-0.054 0.518-0.051 0.802l0.001 0.275c0 0.199 0.014 0.412 0.041 0.63l0.099 0.809 0.169 0.030 0.004 0.35c0.217 0.658 0.479 1.018 0.637 1.127l0.304 0.21v2.382l-0.624 0.073c-2.276 0.267-4.015 1.55-4.048 2.986zM21.176 11.294h-7.059v-1.412h7.059v1.412zM19.765 14.118h-5.647v-1.412h5.647v1.412z"></path>
</svg>
<svg id="icon-untitled5" width="24" height="24" viewBox="0 0 24 24" x="136" y="0">
<path fill="rgb(0, 0, 0)" d="M24 16.235v0.706h-8.708v-1.412h7.273c-0.158-2.389-1.114-4.561-2.6-6.26l-1.138 1.138-0.998-0.998 1.132-1.132c-1.697-1.487-3.868-2.437-6.256-2.596v4.201h-1.412v-4.201c-2.387 0.16-4.559 1.11-6.254 2.596l1.124 1.124-0.998 0.998-1.129-1.129c-1.487 1.698-2.444 3.871-2.6 6.26h7.3v1.412h-8.736v-0.706c0-6.617 5.383-12 12-12s12 5.383 12 12zM14.824 16.235c0 1.557-1.266 2.824-2.824 2.824s-2.824-1.266-2.824-2.824c0-0.909 0.439-1.708 1.107-2.226l-2.939-5.125 1.224-0.702 3.023 5.27c0.134-0.020 0.268-0.041 0.409-0.041 1.557 0 2.824 1.266 2.824 2.824zM13.412 16.235c0-0.778-0.634-1.412-1.412-1.412s-1.412 0.634-1.412 1.412 0.634 1.412 1.412 1.412 1.412-0.634 1.412-1.412z"></path>
</svg>
<svg id="icon-untitled6" width="24" height="24" viewBox="0 0 24 24" x="170" y="0">
<path fill="rgb(0, 0, 0)" d="M24 14.095l-2.764 0.003-2.896-5.627h-11.222l-4.19 5.646-2.928 0.001v7.026h2.826c0 0.011-0.003 0.021-0.003 0.032 0 1.557 1.266 2.824 2.824 2.824s2.824-1.266 2.824-2.824c0-0.011-0.003-0.021-0.003-0.032h7.066c-0.001 0.011-0.004 0.021-0.004 0.032 0 1.557 1.266 2.824 2.824 2.824s2.824-1.266 2.824-2.824c0-0.011-0.003-0.021-0.003-0.032h2.826v-7.049zM19.649 14.099l-5.502 0.006v-4.223h3.332l2.17 4.217zM7.827 9.882h4.909v4.224l-8.048 0.007 3.14-4.231zM5.647 22.588c-0.778 0-1.412-0.634-1.412-1.412s0.634-1.412 1.412-1.412 1.412 0.634 1.412 1.412-0.634 1.412-1.412 1.412zM18.353 22.588c-0.778 0-1.412-0.634-1.412-1.412s0.634-1.412 1.412-1.412 1.412 0.634 1.412 1.412-0.634 1.412-1.412 1.412zM22.588 19.732h-1.823c-0.494-0.822-1.385-1.379-2.413-1.379s-1.919 0.558-2.413 1.379h-7.88c-0.494-0.822-1.385-1.379-2.413-1.379s-1.919 0.558-2.413 1.379h-1.823v-4.203l21.176-0.021v4.224z"></path>
</svg>
<svg id="icon-untitled7" width="24" height="24" viewBox="0 0 24 24" x="204" y="0">
<path fill="rgb(0, 0, 0)" d="M12 0c-6.617 0-12 5.383-12 12s5.383 12 12 12 12-5.383 12-12-5.383-12-12-12zM12 22.588c-5.839 0-10.588-4.749-10.588-10.588s4.749-10.588 10.588-10.588 10.588 4.749 10.588 10.588-4.749 10.588-10.588 10.588zM18.353 12.706c0 3.503-2.85 6.353-6.353 6.353s-6.353-2.85-6.353-6.353c0-0.39 0.316-0.706 0.706-0.706s0.706 0.316 0.706 0.706c0 2.725 2.216 4.941 4.941 4.941s4.941-2.216 4.941-4.941c0-0.39 0.316-0.706 0.706-0.706s0.706 0.316 0.706 0.706zM6.353 7.765c0-0.779 0.632-1.412 1.412-1.412s1.412 0.632 1.412 1.412-0.632 1.412-1.412 1.412-1.412-0.632-1.412-1.412zM14.824 7.765c0-0.779 0.632-1.412 1.412-1.412s1.412 0.632 1.412 1.412-0.632 1.412-1.412 1.412-1.412-0.632-1.412-1.412z"></path>
</svg>
</svg>
